<mxfile host="app.diagrams.net" modified="2024-04-18T05:13:21.569Z" agent="Mozilla/5.0 (Windows NT 10.0; Win64; x64) AppleWebKit/537.36 (KHTML, like Gecko) Chrome/123.0.0.0 Safari/537.36" etag="K7K1MoNBIdAsarCN8gD2" version="24.2.5" type="device">
  <diagram name="Page-1" id="e4HsSFkInNs4kpQxS1DK">
    <mxGraphModel dx="1050" dy="557" grid="1" gridSize="10" guides="1" tooltips="1" connect="1" arrows="1" fold="1" page="1" pageScale="1" pageWidth="850" pageHeight="1100" math="0" shadow="0">
      <root>
        <mxCell id="0" />
        <mxCell id="1" parent="0" />
        <mxCell id="THsJsn4jzuqdwzfCVEJ6-3" value="" style="rounded=0;whiteSpace=wrap;html=1;" parent="1" vertex="1">
          <mxGeometry x="70" y="260" width="710" height="490" as="geometry" />
        </mxCell>
        <mxCell id="THsJsn4jzuqdwzfCVEJ6-6" value="TRANG HOME" style="rounded=0;whiteSpace=wrap;html=1;" parent="1" vertex="1">
          <mxGeometry x="70" y="260" width="710" height="60" as="geometry" />
        </mxCell>
        <mxCell id="THsJsn4jzuqdwzfCVEJ6-7" value="logo" style="rounded=1;whiteSpace=wrap;html=1;" parent="1" vertex="1">
          <mxGeometry x="100" y="275" width="90" height="30" as="geometry" />
        </mxCell>
        <mxCell id="THsJsn4jzuqdwzfCVEJ6-8" value="login" style="rounded=1;whiteSpace=wrap;html=1;" parent="1" vertex="1">
          <mxGeometry x="620" y="275" width="70" height="30" as="geometry" />
        </mxCell>
        <mxCell id="THsJsn4jzuqdwzfCVEJ6-9" value="tìm kiếm&amp;nbsp;" style="rounded=1;whiteSpace=wrap;html=1;" parent="1" vertex="1">
          <mxGeometry x="700" y="275" width="70" height="30" as="geometry" />
        </mxCell>
        <mxCell id="THsJsn4jzuqdwzfCVEJ6-12" value="Advsertisiment" style="rounded=0;whiteSpace=wrap;html=1;" parent="1" vertex="1">
          <mxGeometry x="70" y="320" width="710" height="100" as="geometry" />
        </mxCell>
        <mxCell id="THsJsn4jzuqdwzfCVEJ6-13" value="" style="rounded=0;whiteSpace=wrap;html=1;" parent="1" vertex="1">
          <mxGeometry x="70" y="420" width="710" height="70" as="geometry" />
        </mxCell>
        <mxCell id="THsJsn4jzuqdwzfCVEJ6-14" value="Các loại sản phảm&lt;div&gt;&lt;br&gt;&lt;/div&gt;" style="text;strokeColor=none;fillColor=none;align=left;verticalAlign=middle;spacingLeft=4;spacingRight=4;overflow=hidden;points=[[0,0.5],[1,0.5]];portConstraint=eastwest;rotatable=0;whiteSpace=wrap;html=1;" parent="1" vertex="1">
          <mxGeometry x="370" y="420" width="150" height="30" as="geometry" />
        </mxCell>
        <mxCell id="THsJsn4jzuqdwzfCVEJ6-15" value="nón 3P4" style="rounded=1;whiteSpace=wrap;html=1;" parent="1" vertex="1">
          <mxGeometry x="170" y="450" width="70" height="30" as="geometry" />
        </mxCell>
        <mxCell id="THsJsn4jzuqdwzfCVEJ6-17" value="nón full face" style="rounded=1;whiteSpace=wrap;html=1;" parent="1" vertex="1">
          <mxGeometry x="260" y="450" width="70" height="30" as="geometry" />
        </mxCell>
        <mxCell id="THsJsn4jzuqdwzfCVEJ6-18" value="nón nửa đầu" style="rounded=1;whiteSpace=wrap;html=1;" parent="1" vertex="1">
          <mxGeometry x="350" y="450" width="70" height="30" as="geometry" />
        </mxCell>
        <mxCell id="THsJsn4jzuqdwzfCVEJ6-19" value="phụ kiện" style="rounded=1;whiteSpace=wrap;html=1;" parent="1" vertex="1">
          <mxGeometry x="460" y="450" width="70" height="30" as="geometry" />
        </mxCell>
        <mxCell id="THsJsn4jzuqdwzfCVEJ6-20" value="nón trẻ em" style="rounded=1;whiteSpace=wrap;html=1;" parent="1" vertex="1">
          <mxGeometry x="550" y="450" width="70" height="30" as="geometry" />
        </mxCell>
        <mxCell id="THsJsn4jzuqdwzfCVEJ6-21" value="xe đạp" style="rounded=1;whiteSpace=wrap;html=1;" parent="1" vertex="1">
          <mxGeometry x="640" y="450" width="70" height="30" as="geometry" />
        </mxCell>
        <mxCell id="THsJsn4jzuqdwzfCVEJ6-24" value="CÁC SẢN PHẨM ĐƯỢC TRƯNG BÀY" style="rounded=0;whiteSpace=wrap;html=1;" parent="1" vertex="1">
          <mxGeometry x="70" y="490" width="710" height="160" as="geometry" />
        </mxCell>
        <mxCell id="vtl9Jq8lzI8ggjakYzpQ-1" value="Footer" style="rounded=0;whiteSpace=wrap;html=1;" vertex="1" parent="1">
          <mxGeometry x="70" y="650" width="710" height="100" as="geometry" />
        </mxCell>
      </root>
    </mxGraphModel>
  </diagram>
</mxfile>
